# xmcd
#
# Track frame offsets:
#	150
#	25002
#	46812
#	69512
#	99100
#	119550
#	141727
#	162612
#	183112
#	204750
#	225300
#
# Disc length: 3149 seconds
#
# Revision: 1
# Processed by: cddbd v1.5.1PL0 Copyright (c) Steve Scherf et al.
# Submitted via: CDex 1.50Beta5
#
DISCID=8b0c4b0b
DTITLE=織田裕二 - SCREEN PLAY
DYEAR=1994
DGENRE=Pop
TTITLE0=OVER THE TROUBLE
TTITLE1=タエコ
TTITLE2=ひとりぼっちから始めよう
TTITLE3=スワン
TTITLE4=永遠のきずな
TTITLE5=電話するよ
TTITLE6=Back to The City
TTITLE7=CRAZY LOVE
TTITLE8=NEWS
TTITLE9=Never Rain
TTITLE10=恋人達の子守歌
EXTD=
EXTT0=
EXTT1=
EXTT2=
EXTT3=
EXTT4=
EXTT5=
EXTT6=
EXTT7=
EXTT8=
EXTT9=
EXTT10=
PLAYORDER=
